<svg xmlns="http://www.w3.org/2000/svg" version="1.1" xmlns:xlink="http://www.w3.org/1999/xlink" xmlns:svgjs="http://svgjs.dev/svgjs" width="2000" height="287" viewBox="0 0 2000 287"><g transform="matrix(1,0,0,1,0.3004563014288806,3.328537097737012)"><svg viewBox="0 0 396 57" data-background-color="#ffffff" preserveAspectRatio="xMidYMid meet" height="287" width="2000" xmlns="http://www.w3.org/2000/svg" xmlns:xlink="http://www.w3.org/1999/xlink"><g id="tight-bounds" transform="matrix(1,0,0,1,0.2400000000000091,-0.10333900764931059)"><svg viewBox="0 0 395.52 57.206678015298614" height="57.206678015298614" width="395.52"><g><svg viewBox="0 0 475.0297347101206 68.70669771757329" height="57.206678015298614" width="395.52"><g transform="matrix(1,0,0,1,79.50973471012057,9.495643461690666)"><svg viewBox="0 0 395.52 49.71541079419196" height="49.71541079419196" width="395.52"><g id="textblocktransform"><svg viewBox="0 0 395.52 49.71541079419196" height="49.71541079419196" width="395.52" id="textblock"><g><svg viewBox="0 0 395.52 49.71541079419196" height="49.71541079419196" width="395.52"><g transform="matrix(1,0,0,1,0,0)"><svg width="395.52" viewBox="0.05 -35.2 288.78 36.301101321585904" height="49.71541079419196" data-palette-color="#6936f5"><path d="M11.15 1.05Q8.25 1.05 5.78-0.13 3.3-1.3 1.78-3.38 0.25-5.45 0.05-8.05L0.05-8.05 3.8-9.4Q4.15-6.3 6.35-4.53 8.55-2.75 11.3-2.75L11.3-2.75Q13.3-2.75 15.1-3.65 16.9-4.55 18.13-6.18 19.35-7.8 19.6-9.9L19.6-9.9Q19.65-10.2 19.65-10.8L19.65-10.8Q19.65-12.45 18.63-13.68 17.6-14.9 15.1-16.25L15.1-16.25Q11.7-18.05 9.9-19.18 8.1-20.3 6.9-21.93 5.7-23.55 5.7-25.8L5.7-25.8Q5.7-28.5 7.18-30.65 8.65-32.8 11.05-34 13.45-35.2 16.05-35.2L16.05-35.2Q18.05-35.2 19.73-34.4 21.4-33.6 22.35-32.27 23.3-30.95 23.3-29.4L23.3-29.4Q23.3-28.6 23.1-27.95L23.1-27.95 19.35-28.4Q19.45-28.8 19.45-29L19.45-29Q19.45-30 18.28-30.7 17.1-31.4 15.8-31.4L15.8-31.4Q14.25-31.4 12.85-30.68 11.45-29.95 10.58-28.75 9.7-27.55 9.7-26.2L9.7-26.2Q9.7-24.35 11.33-22.98 12.95-21.6 15.75-20.1L15.75-20.1 17.45-19.1Q20.65-17.2 22.13-15.33 23.6-13.45 23.6-10.9L23.6-10.9Q23.6-7.5 21.83-4.75 20.05-2 17.18-0.48 14.3 1.05 11.15 1.05L11.15 1.05ZM29.1 0.05L33.6-34.3 37.6-34.3 35.65-19.75 51.9-19.75 53.85-34.3 57.8-34.3 53.3 0.05 49.3 0.05 51.4-15.85 35.15-15.85 33.05 0.05 29.1 0.05ZM77.5 1.1Q73.09 1.05 69.72-0.88 66.34-2.8 64.52-6.15 62.7-9.5 62.7-13.75L62.7-13.75Q62.7-15.05 62.84-16.4L62.84-16.4 63.05-17.85Q63.64-22.6 66.34-26.55 69.05-30.5 73.09-32.8 77.14-35.1 81.64-35.1L81.64-35.1Q85.84-35.1 89.19-33.13 92.55-31.15 94.42-27.7 96.3-24.25 96.3-20.05L96.3-20.05Q96.3-18.85 96.15-17.65L96.15-17.65 95.94-16.2Q95.3-11.3 92.65-7.3 90-3.3 86-1.07 82 1.15 77.5 1.1L77.5 1.1ZM77.44-2.7Q81.05-2.7 84.19-4.5 87.34-6.3 89.42-9.43 91.5-12.55 92-16.4L92-16.4 92.19-17.85Q92.34-18.85 92.34-19.85L92.34-19.85Q92.34-23.05 90.94-25.68 89.55-28.3 87.07-29.8 84.59-31.3 81.5-31.3L81.5-31.3Q78-31.3 74.84-29.45 71.69-27.6 69.59-24.48 67.5-21.35 67-17.65L67-17.65 66.8-16.2Q66.64-15.15 66.64-14.1L66.64-14.1Q66.64-10.8 68-8.2 69.34-5.6 71.8-4.15 74.25-2.7 77.44-2.7L77.44-2.7ZM115.74-34.3Q119.59-34.3 121.89-31.75 124.19-29.2 124.19-25.1L124.19-25.1Q124.19-24.15 124.04-23.15L124.04-23.15Q123.39-18.05 119.77-15.18 116.14-12.3 109.84-12.3L109.84-12.3 106.19-12.4 104.44 0.05 100.49 0.05 104.99-34.3 115.74-34.3ZM110.54-16.1Q114.74-16.1 117.19-18.07 119.64-20.05 120.14-23.7L120.14-23.7Q120.24-24.6 120.24-25L120.24-25Q120.24-27.65 118.79-29.08 117.34-30.5 114.79-30.5L114.79-30.5 108.49-30.5 106.49-16.25 108.24-16.2Q109.94-16.1 110.54-16.1L110.54-16.1ZM135.99 1.05Q133.09 1.05 130.62-0.13 128.14-1.3 126.62-3.38 125.09-5.45 124.89-8.05L124.89-8.05 128.64-9.4Q128.99-6.3 131.19-4.53 133.39-2.75 136.14-2.75L136.14-2.75Q138.14-2.75 139.94-3.65 141.74-4.55 142.97-6.18 144.19-7.8 144.44-9.9L144.44-9.9Q144.49-10.2 144.49-10.8L144.49-10.8Q144.49-12.45 143.47-13.68 142.44-14.9 139.94-16.25L139.94-16.25Q136.54-18.05 134.74-19.18 132.94-20.3 131.74-21.93 130.54-23.55 130.54-25.8L130.54-25.8Q130.54-28.5 132.02-30.65 133.49-32.8 135.89-34 138.29-35.2 140.89-35.2L140.89-35.2Q142.89-35.2 144.57-34.4 146.24-33.6 147.19-32.27 148.14-30.95 148.14-29.4L148.14-29.4Q148.14-28.6 147.94-27.95L147.94-27.95 144.19-28.4Q144.29-28.8 144.29-29L144.29-29Q144.29-30 143.12-30.7 141.94-31.4 140.64-31.4L140.64-31.4Q139.09-31.4 137.69-30.68 136.29-29.95 135.42-28.75 134.54-27.55 134.54-26.2L134.54-26.2Q134.54-24.35 136.17-22.98 137.79-21.6 140.59-20.1L140.59-20.1 142.29-19.1Q145.49-17.2 146.97-15.33 148.44-13.45 148.44-10.9L148.44-10.9Q148.44-7.5 146.67-4.75 144.89-2 142.02-0.48 139.14 1.05 135.99 1.05L135.99 1.05ZM168.69-34.3Q172.54-34.3 174.84-31.75 177.14-29.2 177.14-25.1L177.14-25.1Q177.14-24.15 176.99-23.15L176.99-23.15Q176.34-18.05 172.71-15.18 169.09-12.3 162.79-12.3L162.79-12.3 159.14-12.4 157.39 0.05 153.44 0.05 157.94-34.3 168.69-34.3ZM163.49-16.1Q167.69-16.1 170.14-18.07 172.59-20.05 173.09-23.7L173.09-23.7Q173.19-24.6 173.19-25L173.19-25Q173.19-27.65 171.74-29.08 170.29-30.5 167.74-30.5L167.74-30.5 161.44-30.5 159.44-16.25 161.19-16.2Q162.89-16.1 163.49-16.1L163.49-16.1ZM204.24-3.75L205.74-0.4Q204.84 0.5 202.94 0.5L202.94 0.5Q200.29 0.5 199.04-1.7L199.04-1.7 194.44-9.65Q193.74-10.9 193.11-11.63 192.49-12.35 191.39-12.85 190.29-13.35 188.49-13.4L188.49-13.4 188.94-17.25 193.49-17.25Q196.69-17.25 198.69-19.43 200.69-21.6 200.69-25.2L200.69-25.2Q200.69-27.6 199.39-29.05 198.09-30.5 195.94-30.5L195.94-30.5 188.89-30.5 184.84 0.05 180.89 0.05 185.39-34.3 196.44-34.3Q198.84-34.3 200.71-33.1 202.59-31.9 203.64-29.88 204.69-27.85 204.69-25.45L204.69-25.45Q204.69-23.15 203.74-20.95 202.79-18.75 201.24-17.2 199.69-15.65 197.94-15.15L197.94-15.15Q196.84-14.85 195.46-14.83 194.09-14.8 193.84-14.8L193.84-14.8Q195.14-14.4 195.74-13.93 196.34-13.45 196.89-12.45L196.89-12.45Q197.49-11.7 201.84-4.05L201.84-4.05Q202.24-3.55 202.51-3.38 202.79-3.2 203.09-3.2L203.09-3.2Q203.69-3.2 204.24-3.75L204.24-3.75ZM211.63 0.05L216.13-34.3 220.13-34.3 215.58 0.05 211.63 0.05ZM225.03 0.05L229.58-34.8 231.28-34.8 248.53-8 249.08-6.75 249.23-8.15 252.63-34.35 256.58-34.35 252.03 0.05 250.03 0.05 247.63-2.8 233.78-23.3 232.18-25.9 231.98-22.6 228.98 0.05 225.03 0.05ZM269.33 0.05L273.33-30.5 262.33-30.5 262.83-34.3 288.83-34.3 288.33-30.5 277.33-30.5 273.28 0.05 269.33 0.05Z" opacity="1" transform="matrix(1,0,0,1,0,0)" fill="#ffffff" class="wordmark-text-0" data-fill-palette-color="primary" id="text-0"></path></svg></g></svg></g></svg></g></svg></g><g><svg viewBox="0 0 67.7731193914709 68.70669771757329" height="68.70669771757329" width="67.7731193914709"><g><svg xmlns="http://www.w3.org/2000/svg" data-name="Layer 1" viewBox="3 2.3699981764353555 94.03466925066735 95.33000182356466" x="0" y="0" height="68.70669771757329" width="67.7731193914709" class="icon-icon-0" data-fill-palette-color="accent" id="icon-0"><path d="M96.66 28.37v0l-12-24a3.7 3.7 0 0 0-3.29-2q-32 0.15-64 1.07h-0.17A2.47 2.47 0 0 0 15 4.82L4.63 27.52h0A1.88 1.88 0 0 0 5.38 30h0c-0.94 0-1.72 0.48-1.77 1.1l0 0.17-0.45 7.42C3.08 40 3 41 3 42.51a10.29 10.29 0 0 0 1.17 4.71 10.7 10.7 0 0 0 7.41 5.51q-0.39 8.82-0.79 17.63l-0.34 9.38-0.14 4.69A13.56 13.56 0 0 0 11 90.28a11.34 11.34 0 0 0 10.32 7.15l9.4 0.15 18.77 0.12 18.77-0.13 9.5-0.17A11.31 11.31 0 0 0 87.84 90a11 11 0 0 0 0.64-3.21c0-1.22 0-1.68 0-2.56l-0.15-4.7L88 70.14q-0.39-8.69-0.8-17.4A10.72 10.72 0 0 0 94.7 47a10.49 10.49 0 0 0 1.06-4.71l-0.2-3.78-0.34-5.4A3.62 3.62 0 0 0 96.66 28.37Zm-9.17-2c-6.7 0.05-13.39 0.18-20.09 0.28A36.82 36.82 0 0 0 64.75 9.5c4.78 0.05 9.56 0.12 14.34 0.15Zm-25.41 0.36q-12.84 0.23-25.68 0.6a37 37 0 0 0 3-18.27q10 0.21 20 0.34A36.91 36.91 0 0 0 62.08 26.77ZM18.91 8.64c5.08 0.14 10.17 0.23 15.25 0.35a37.08 37.08 0 0 0-2.68 18.53c-7.74 0.23-15.47 0.41-23.21 0.71ZM49.27 90.28l-8.62 0c0.18-4.8 0.34-9.6 0.39-14.4l0-2.12a4.25 4.25 0 0 1 0.22-1.18 4.5 4.5 0 0 1 1.36-2 4.43 4.43 0 0 1 2.2-1l0.69 0h1.13l2.26 0 4.48-0.11a4.67 4.67 0 0 1 2.47 0.61A4.87 4.87 0 0 1 57.75 72a4.71 4.71 0 0 1 0.49 1.28 9 9 0 0 1 0.17 1.68c0.29 4.91 0.92 9.94 1.51 15.42ZM82.44 79.74l-0.14 4.69a7.37 7.37 0 0 1-0.5 3.39 4.72 4.72 0 0 1-4.4 2.74L68 90.41l-5 0c0.52-4.87 1-10.05 1.26-15.32a11.88 11.88 0 0 0-0.87-5.86 11.16 11.16 0 0 0-4-4.79 11.45 11.45 0 0 0-6.06-1.91l-4.51-0.1-2.25 0-1.13 0a12.77 12.77 0 0 0-1.58 0.09 11.52 11.52 0 0 0-9.65 7.92 11.54 11.54 0 0 0-0.56 3.24V76c0 4.8 0.22 9.61 0.39 14.41l-3.6 0-9.27 0.14a4.7 4.7 0 0 1-4.3-2.85 4.17 4.17 0 0 1-0.37-1.35c-0.06-0.33 0-1.44-0.09-2.12l-0.14-4.69L16 70.14l-0.78-17.08 0.84 0 3.71 0.13q14.84 0.48 29.69 0.48t29.69-0.51l3.71-0.13 0.72 0q-0.4 8.67-0.8 17.33ZM91 42.27a5.44 5.44 0 0 1-0.88 2.37A5.28 5.28 0 0 1 86 47c-0.57 0-2.22-0.07-3.34-0.1L79 46.78q-14.83-0.49-29.69-0.5t-29.69 0.48l-3.71 0.13c-1.17 0-2.7 0.13-3.27 0.08a5.27 5.27 0 0 1-4-2.44 5.59 5.59 0 0 1-0.82-2.38L7.6 38.51 7.18 31.7h0.37q42 1.64 83.94 1.9l-0.31 5.06C91.1 39.87 91.06 41.28 91 42.27Z" fill="#ffffff" data-fill-palette-color="accent"></path></svg></g></svg></g></svg></g><defs></defs></svg><rect width="395.52" height="57.206678015298614" fill="none" stroke="none" visibility="hidden"></rect></g></svg></g></svg>